
		<svg xmlns="http://www.w3.org/2000/svg" xmlns:xlink="http://www.w3.org/1999/xlink" version="1.1" width="3230.769230769231" height="1038.4615384615386">
			<rect fill="#31a9e0" width="3230.769230769231" height="1038.4615384615386"/>
			<g transform="scale(11.538461538461538) translate(10, 10)">
				<defs id="SvgjsDefs2609"></defs><g id="SvgjsG2610" featureKey="root" fill="#31a9e0"></g><g id="SvgjsG2611" featureKey="symbol1" fill="#000000" transform="matrix(0.7883681872181972,0,0,0.7883681872181972,-2.449461738059432,-2.9563807020682398)"><g id="SvgjsG2612"><g xmlns="http://www.w3.org/2000/svg"><path d="M43.471,53.194l-0.283,0.128c-2.493,1.227-4.701,2.462-7.129,4.001l-1.999-5.871L26.26,68.144l17.958-4.677l-4.701-2.662   c1.103-0.676,2.21-1.329,3.325-1.938c4.432-2.401,9.415-4.525,14.892-5.963l-3.161-4.099   C50.599,49.985,46.906,51.505,43.471,53.194z"></path><path d="M47.504,3.75c-24.481,0-44.397,19.917-44.397,44.398c0,24.479,19.916,44.393,44.397,44.393   c24.479,0,44.394-19.914,44.394-44.393C91.897,23.667,71.982,3.75,47.504,3.75z M70.14,74.578c0.598-2.911,0.833-6.287,0.656-10   c-0.045-0.952-0.133-1.912-0.232-2.871c-0.386,0.952-1.188,1.685-2.21,1.92c-0.238,0.056-0.479,0.081-0.717,0.081   c-0.631,0-1.235-0.206-1.758-0.551c0.045,0.55,0.109,1.103,0.137,1.649c0.342,7.16-1.01,12.054-2.761,14.382   c-2.707,1.38-5.611,2.422-8.668,3.057c-2.06-3.667-5.859-9.53-11.543-15.175l-5.258,1.368c5.603,5.049,9.469,10.593,11.742,14.47   c-0.67,0.037-1.344,0.062-2.023,0.062c-9.245,0-17.653-3.627-23.896-9.523c0.641-0.654,1.382-1.387,2.201-2.162   c-0.766-0.109-1.486-0.482-2.001-1.1c-0.71-0.854-0.89-2-0.545-3.037c-1.081,0.995-2.075,1.949-2.899,2.786   c-3.083-3.83-5.376-8.321-6.621-13.228c4.633,0.718,8.79,2.104,12.517,3.901l1.977-4.228c-4.533-2.22-9.64-3.887-15.372-4.611   c-0.124-1.19-0.188-2.398-0.188-3.621c0-2.691,0.316-5.309,0.897-7.825c0.757,0.03,1.631,0.051,2.637,0.051   c4.275,0,10.486-0.344,17.555-2.056l0.168-0.042c0.421-0.103,0.828-0.229,1.243-0.339c0.553-0.146,1.104-0.294,1.663-0.455   c0.532-0.155,1.057-0.318,1.58-0.485c0.404-0.127,0.572-0.187,0.979-0.323l0.226-0.081c1.058-0.361,2.084-0.766,3.11-1.172   l0.444,5.74l11.623-14.499l-18.568,0.137l4.411,4.325c-1.352,0.529-2.726,1.03-4.142,1.47c-0.383,0.119-0.763,0.224-1.144,0.333   c-0.708,0.204-1.418,0.403-2.139,0.584c-7.51,1.877-14.22,2.154-18.191,2.074c2.56-6.594,7.068-12.223,12.82-16.17   c3.815-0.286,9.225,1.01,14.808,4.276l8.157-0.148c-3.14-2.567-6.514-4.708-10.049-6.267c-1.777-0.783-3.528-1.387-5.23-1.837   c3.734-1.371,7.766-2.119,11.969-2.119c4.967,0,9.691,1.053,13.971,2.936c-2.272,2.792-4.744,4.882-7.326,6.937l0.702-0.078   c1.216,0,2.277,0.757,2.813,1.85c0.204,0.416,0.281,1.007,0.295,1.454c2.766-2.292,5.408-4.867,7.835-7.963   C75.4,24.41,81.902,34.939,82.298,46.954c-2.883-0.471-5.694-0.708-8.436-0.772l-0.995,4.804c3,0.027,6.085,0.272,9.267,0.825   C81.181,60.889,76.719,68.934,70.14,74.578z"></path><path d="M66.504,45.312c-0.928-2.318-1.821-4.288-3.005-6.42l-0.175-0.263c-0.51-0.931-1.034-1.852-1.594-2.738   c-1.488-2.352-3.166-4.538-4.966-6.578l-3.036,3.788c1.385,1.623,2.718,3.388,3.958,5.348c1.132,1.788,1.814,3.074,2.397,4.256   l0.133,0.25c0.564,1.13,1.082,2.297,1.574,3.479l-5.717-0.907l11.562,14.991l3.806-18.374L66.504,45.312z"></path></g></g></g><g id="SvgjsG2613" featureKey="text1" fill="#000000" transform="matrix(0.7104000000000001,0,0,0.7104000000000001,94.57376040649415,11.066495837402343)"><path d="M20.3 10 l-4.58 14 l-1.86 0 l-3.42 -9.34 l-3.4 9.34 l-1.86 0 l-4.58 -14 l2.76 0 l2.86 8.84 l3.22 -8.84 l2.02 0 l3.22 8.84 l2.86 -8.84 l2.76 0 z M30.360000000000003 13.58 l2.56 0 l-6.34 14.22 l-2.58 0 l1.88 -4.14 l-4.48 -10.08 l2.56 0 l3.2 7.28 z M38.88 21.86 c0.56 0 0.94 -0.08 1.38 -0.24 l0 2.14 c-0.44 0.22 -1.08 0.36 -2.04 0.36 c-1.48 0 -2.76 -0.54 -2.76 -3.22 l0 -5.18 l-1.44 0 l0 -2.12 l1.44 0 l0 -2.44 l2.58 0 l0 2.44 l2.2 0 l0 2.12 l-2.2 0 l0 5.14 c0 0.52 0.16 1 0.84 1 z M46.800000000000004 13.42 c1.9 0 3 1.2 3.08 1.54 l0 -1.36 l2.58 0 l0 10.4 l-2.58 0 l0 -1.5 c-0.08 0.56 -1.18 1.7 -3.08 1.7 c-2.38 0 -5.16 -1.74 -5.16 -5.4 c0 -3.58 2.78 -5.38 5.16 -5.38 z M47.14000000000001 15.7 c-1.5 0 -3 1.06 -3 3.1 c0 2.06 1.5 3.12 3 3.12 s2.86 -1.04 2.86 -3.12 c0 -2.06 -1.36 -3.1 -2.86 -3.1 z M60.580000000000005 13.44 c1.98 0 3.94 1.3 3.94 4.56 l0 6 l-2.56 0 l0 -5.84 c0 -1.8 -0.78 -2.48 -1.98 -2.48 c-1.6 0 -2.6 1.52 -2.82 2.36 l0 5.96 l-2.58 0 l0 -10.4 l2.58 0 l0 2.04 c0.2 -0.58 1.34 -2.2 3.42 -2.2 z M71.28 13.42 c1.9 0 3 1.2 3.08 1.54 l0 -1.36 l2.58 0 l0 10.4 l-2.58 0 l0 -1.5 c-0.08 0.56 -1.18 1.7 -3.08 1.7 c-2.38 0 -5.16 -1.74 -5.16 -5.4 c0 -3.58 2.78 -5.38 5.16 -5.38 z M71.62 15.7 c-1.5 0 -3 1.06 -3 3.1 c0 2.06 1.5 3.12 3 3.12 s2.86 -1.04 2.86 -3.12 c0 -2.06 -1.36 -3.1 -2.86 -3.1 z  M89.72 9.76 c2.38 0 3.96 1.52 4.66 2.9 l-1.94 1.14 c-0.74 -1.1 -1.54 -1.72 -2.72 -1.72 c-1.12 0 -1.92 0.66 -1.92 1.56 c0 0.86 0.52 1.36 1.72 1.8 l0.96 0.36 c2.98 1.06 4.28 2.36 4.28 4.36 c0 2.72 -2.58 4.14 -4.96 4.14 c-2.5 0 -4.46 -1.48 -5.1 -3.44 l2.02 -1.06 c0.5 1.12 1.44 2.12 3.08 2.12 c1.24 0 2.24 -0.6 2.24 -1.72 c0 -1.14 -0.72 -1.64 -2.28 -2.22 l-0.9 -0.32 c-2.08 -0.76 -3.66 -1.8 -3.66 -4.12 c0 -2.2 2.02 -3.78 4.52 -3.78 z M100.92 21.86 c0.56 0 0.94 -0.08 1.38 -0.24 l0 2.14 c-0.44 0.22 -1.08 0.36 -2.04 0.36 c-1.48 0 -2.76 -0.54 -2.76 -3.22 l0 -5.18 l-1.44 0 l0 -2.12 l1.44 0 l0 -2.44 l2.58 0 l0 2.44 l2.2 0 l0 2.12 l-2.2 0 l0 5.14 c0 0.52 0.16 1 0.84 1 z M110.26 13.44 c0.26 0 0.48 0 0.72 0.04 l0 2.46 c-0.22 -0.04 -0.46 -0.04 -0.64 -0.04 c-1.94 0 -3.52 1.38 -3.72 3.48 l0 4.62 l-2.58 0 l0 -10.4 l2.58 0 l0 2.62 c0.44 -1.56 1.72 -2.78 3.64 -2.78 z M117.44 13.42 c1.9 0 3 1.2 3.08 1.54 l0 -1.36 l2.58 0 l0 10.4 l-2.58 0 l0 -1.5 c-0.08 0.56 -1.18 1.7 -3.08 1.7 c-2.38 0 -5.16 -1.74 -5.16 -5.4 c0 -3.58 2.78 -5.38 5.16 -5.38 z M117.78 15.7 c-1.5 0 -3 1.06 -3 3.1 c0 2.06 1.5 3.12 3 3.12 s2.86 -1.04 2.86 -3.12 c0 -2.06 -1.36 -3.1 -2.86 -3.1 z M129.62 21.86 c0.56 0 0.94 -0.08 1.38 -0.24 l0 2.14 c-0.44 0.22 -1.08 0.36 -2.04 0.36 c-1.48 0 -2.76 -0.54 -2.76 -3.22 l0 -5.18 l-1.44 0 l0 -2.12 l1.44 0 l0 -2.44 l2.58 0 l0 2.44 l2.2 0 l0 2.12 l-2.2 0 l0 5.14 c0 0.52 0.16 1 0.84 1 z M137.8 13.42 c2.36 0 5.6 1.8 5.04 6.3 l-7.86 0 c0.34 1.52 1.6 2.3 3.1 2.3 c1.34 0 1.94 -0.32 2.68 -0.8 l1.44 1.38 c-0.92 0.98 -2.22 1.6 -4.2 1.6 c-2.62 0 -5.62 -1.8 -5.62 -5.38 c0 -3.6 3.06 -5.4 5.42 -5.4 z M137.8 15.62 c-1.16 0 -2.42 0.76 -2.8 2.24 l5.58 0 c-0.3 -1.48 -1.62 -2.24 -2.78 -2.24 z M152.54 13.6 l2.58 0 l0 10.4 c0 3.14 -3.02 4.12 -5.22 4.12 c-1.3 0 -2.3 -0.28 -2.88 -0.62 l0 -2.12 c0.58 0.34 1.56 0.6 2.88 0.6 c1.82 0 2.64 -0.98 2.64 -1.98 l0 -1.5 c-0.08 0.56 -1.18 1.7 -3.08 1.7 c-2.38 0 -5.16 -1.74 -5.16 -5.4 c0 -3.58 2.78 -5.38 5.16 -5.38 c1.9 0 3 1.2 3.08 1.54 l0 -1.36 z M149.79999999999998 21.92 c1.5 0 2.86 -1.04 2.86 -3.12 c0 -2.06 -1.36 -3.1 -2.86 -3.1 s-3 1.06 -3 3.1 c0 2.06 1.5 3.12 3 3.12 z M159.82 9.86 l0 2.2 l-2.58 0 l0 -2.2 l2.58 0 z M159.82 13.6 l0 10.4 l-2.58 0 l0 -10.4 l2.58 0 z M167 13.42 c2.36 0 5.6 1.8 5.04 6.3 l-7.86 0 c0.34 1.52 1.6 2.3 3.1 2.3 c1.34 0 1.94 -0.32 2.68 -0.8 l1.44 1.38 c-0.92 0.98 -2.22 1.6 -4.2 1.6 c-2.62 0 -5.62 -1.8 -5.62 -5.38 c0 -3.6 3.06 -5.4 5.42 -5.4 z M167 15.62 c-1.16 0 -2.42 0.76 -2.8 2.24 l5.58 0 c-0.3 -1.48 -1.62 -2.24 -2.78 -2.24 z M178.85999999999999 16.58 c-0.34 -0.76 -0.84 -1.1 -1.5 -1.1 c-0.64 0 -1.16 0.38 -1.16 0.92 c0 0.52 0.3 0.84 0.98 1.1 l1.22 0.42 c1.56 0.56 2.98 1.16 2.98 3.12 c0 2.06 -2.02 3.18 -4.04 3.18 c-1.88 0 -3.62 -1.08 -4.04 -2.88 l2.04 -0.62 c0.28 0.78 0.92 1.46 2 1.46 c0.82 0 1.5 -0.5 1.5 -1.16 c0 -0.46 -0.34 -0.8 -1.06 -1.08 l-1.2 -0.42 c-2 -0.72 -2.88 -1.76 -2.88 -3.14 c0 -1.84 1.66 -2.96 3.56 -2.96 s3.18 1.02 3.74 2.58 z M181.98 26.88 l1.8 -5.14 l2.2 0 l-1.78 5.14 l-2.22 0 z  M195.89999999999998 21.58 l5.68 0 l0 2.42 l-8.3 0 l0 -14 l2.62 0 l0 11.58 z M206.2 21.58 l5.68 0 l0 2.42 l-8.3 0 l0 -14 l2.62 0 l0 11.58 z M225.6 22.5 c-1.26 1.1 -2.9 1.7 -4.76 1.7 c-3.84 0 -7.26 -2.96 -7.26 -7.2 s3.42 -7.2 7.26 -7.2 c1.84 0 3.46 0.6 4.68 1.66 l-1.58 1.8 c-0.8 -0.6 -1.86 -1 -2.94 -1 c-2.6 0 -4.7 1.98 -4.7 4.74 s2.1 4.74 4.7 4.74 c1.1 0 2.2 -0.42 3.02 -1.08 z"></path></g><g id="SvgjsG2614" featureKey="text3" fill="#000000" transform="matrix(0.6897670833765942,0,0,0.6897670833765942,89.44818653064267,40.412888992776935)"><path d="M9.08 24.3 c-2.26 0 -4.2 -0.8 -5.82 -2.38 c-1.64 -1.58 -2.46 -3.5 -2.46 -5.72 s0.82 -4.14 2.46 -5.72 c1.62 -1.58 3.56 -2.38 5.82 -2.38 c2.28 0 4.24 0.8 5.86 2.38 s2.42 3.5 2.42 5.72 s-0.8 4.14 -2.42 5.72 s-3.58 2.38 -5.86 2.38 z M9.08 20.44 c1.2 0 2.2 -0.42 3.02 -1.24 s1.22 -1.82 1.22 -3 s-0.4 -2.2 -1.22 -3.02 s-1.82 -1.22 -3.02 -1.22 c-1.18 0 -2.18 0.42 -3 1.24 s-1.24 1.82 -1.24 3 s0.42 2.18 1.24 3 s1.82 1.24 3 1.24 z M18.96 24 l0 -15.6 l6.88 0 c1.96 0 3.48 0.5 4.54 1.5 c1.06 1.02 1.58 2.28 1.58 3.74 c0 1.54 -0.52 2.82 -1.58 3.82 s-2.56 1.52 -4.54 1.52 l-2.88 0 l0 5.02 l-4 0 z M22.96 15.78 l2.66 0 c1.54 0 2.3 -0.7 2.3 -2.12 c0 -0.6 -0.18 -1.08 -0.56 -1.48 s-0.96 -0.58 -1.74 -0.58 l-2.66 0 l0 4.18 z M33.559999999999995 24 l0 -15.6 l11.98 0 l0 3.88 l-7.98 0 l0 2.24 l5.62 0 l0 3.62 l-5.62 0 l0 2 l7.98 0 l0 3.86 l-11.98 0 z M47.13999999999999 24 l0 -15.6 l3.4 0 l6.96 8.72 l0 -8.72 l3.98 0 l0 15.6 l-3.38 0 l-6.96 -8.7 l0 8.7 l-4 0 z M63.07999999999999 24 l0 -15.6 l4 0 l0 15.6 l-4 0 z M68.67999999999999 24 l0 -15.6 l3.4 0 l6.96 8.72 l0 -8.72 l3.98 0 l0 15.6 l-3.38 0 l-6.96 -8.7 l0 8.7 l-4 0 z M92.89999999999999 24.3 c-2.26 0 -4.2 -0.8 -5.82 -2.38 c-1.64 -1.58 -2.46 -3.5 -2.46 -5.72 s0.82 -4.14 2.46 -5.72 c1.62 -1.58 3.56 -2.38 5.82 -2.38 c2.28 0 4.24 0.8 5.86 2.38 c1.22 1.18 1.98 2.56 2.26 4.1 l-4.18 0 c-0.2 -0.52 -0.52 -1 -0.92 -1.4 c-0.82 -0.82 -1.82 -1.22 -3.02 -1.22 c-1.18 0 -2.18 0.42 -3 1.24 s-1.24 1.82 -1.24 3 s0.42 2.18 1.24 3 s1.82 1.24 3 1.24 c1.2 0 2.2 -0.42 3.02 -1.24 l0.24 -0.26 l-3.8 0 l0.02 -3.02 l8.72 0 l0 1.36 c-0.22 1.78 -0.98 3.32 -2.34 4.64 c-1.62 1.58 -3.58 2.38 -5.86 2.38 z  M109.69999999999999 24 l0 -15.6 l6.88 0 c1.96 0 3.48 0.5 4.54 1.5 c1.06 1.02 1.58 2.28 1.58 3.74 c0 1.54 -0.52 2.82 -1.58 3.82 s-2.56 1.52 -4.54 1.52 l-2.88 0 l0 5.02 l-4 0 z M113.69999999999999 15.78 l2.66 0 c1.54 0 2.3 -0.7 2.3 -2.12 c0 -0.6 -0.18 -1.08 -0.56 -1.48 s-0.96 -0.58 -1.74 -0.58 l-2.66 0 l0 4.18 z M124.29999999999998 24 l6.32 -15.6 l3.96 0 l6.3 15.6 l-4.36 0 l-1.26 -3.48 l-5.3 0 l-1.3 3.48 l-4.36 0 z M131.2 17.28 l2.78 -0.02 l-1.38 -3.74 z M147.33999999999997 24 l0 -11.72 l-4.86 0 l0 -3.88 l13.72 0 l0 3.88 l-4.86 0 l0 11.72 l-4 0 z M157.79999999999998 24 l0 -15.6 l3.98 0 l0 6.06 l6.36 0 l0 -6.06 l4 0 l0 15.6 l-4 0 l0 -5.8 l-6.36 0 l0 5.8 l-3.98 0 z M178.11999999999998 24 l-4.38 -15.6 l4.26 0 l2.52 9.3 l2.92 -9.3 l3.56 0 l2.92 9.28 l2.52 -9.28 l4.28 0 l-4.38 15.6 l-4.14 0 l-2.98 -9.06 l-2.96 9.06 l-4.14 0 z M198.32 24 l6.32 -15.6 l3.96 0 l6.3 15.6 l-4.36 0 l-1.26 -3.48 l-5.3 0 l-1.3 3.48 l-4.36 0 z M205.21999999999997 17.28 l2.78 -0.02 l-1.38 -3.74 z M222.66 24 l0 -5.72 l-6.16 -9.88 l4.7 0 l3.44 5.66 l3.46 -5.66 l4.72 0 l-6.18 9.88 l0 5.72 l-3.98 0 z M241.06 24.3 c-1.94 0 -3.52 -0.42 -4.76 -1.28 s-1.86 -2.02 -1.86 -3.52 l0 -0.18 l-0.02 -0.8 l3.92 0 l0 0.9 c0 0.34 0.24 0.66 0.7 0.96 s1.1 0.46 1.94 0.46 c0.7 0 1.2 -0.1 1.52 -0.28 c0.3 -0.18 0.46 -0.42 0.46 -0.68 c0 -0.32 -0.2 -0.6 -0.58 -0.84 c-0.4 -0.24 -1.1 -0.52 -2.08 -0.86 c-0.62 -0.22 -1.14 -0.4 -1.56 -0.56 s-0.92 -0.4 -1.5 -0.72 c-0.58 -0.3 -1.06 -0.64 -1.4 -0.98 s-0.64 -0.76 -0.9 -1.28 s-0.38 -1.08 -0.38 -1.7 c0 -1.46 0.56 -2.64 1.7 -3.52 s2.6 -1.32 4.4 -1.32 c1.86 0 3.38 0.46 4.58 1.38 s1.8 2.14 1.8 3.66 l0 0.98 l-3.9 0 l0 -0.9 c0 -0.42 -0.2 -0.82 -0.62 -1.16 s-1.02 -0.5 -1.78 -0.5 c-0.62 0 -1.1 0.1 -1.42 0.3 c-0.32 0.22 -0.48 0.46 -0.48 0.76 s0.18 0.54 0.54 0.74 c0.36 0.22 1.04 0.5 2.04 0.84 l1.02 0.36 l1.08 0.44 c0.46 0.22 0.84 0.4 1.12 0.58 s0.6 0.42 0.98 0.72 s0.66 0.62 0.88 0.92 c0.2 0.3 0.38 0.68 0.54 1.1 c0.14 0.42 0.22 0.88 0.22 1.34 c0 1.48 -0.58 2.62 -1.72 3.42 c-1.14 0.82 -2.64 1.22 -4.48 1.22 z"></path></g>
			</g>
		</svg>
	